<?xml version="1.0" encoding="UTF-8"?>
<svg id="Layer_1" xmlns="http://www.w3.org/2000/svg" version="1.1" viewBox="0 0 882.1 463.1">
  <!-- Generator: Adobe Illustrator 29.5.1, SVG Export Plug-In . SVG Version: 2.1.0 Build 141)  -->
  <defs>
    <style>
      .st0 {
        fill: #fff;
      }
    </style>
  </defs>
  <g>
    <path class="st0" d="M193.7,395.2v17.8c4.7-4.9,10.3-7.6,17.1-4.9s6.6,5.3,6.6,7.9v24h-7.9v-20.1c0-5.1-9.3-6.6-12.9-3s-2.9,5-2.9,5.6v17.4c-2.5-.3-6,.9-7.9-1v-43.8h7.9Z"/>
    <path class="st0" d="M487.2,395.2v17.8c4.7-5.3,12.3-8.2,18.8-4,1.5,1,4.9,5.3,4.9,6.9v24h-7.9v-20.1c0-.3-1-2.2-1.3-2.6-3.9-5.4-14.5-1.4-14.5,5.3v17.4h-7.9v-44.7h7.9Z"/>
    <path class="st0" d="M601,395.2v25c1.1.3,1.3-.5,2-1,2.8-2.2,9-10.2,11.2-11.2s6.6,0,9.2-.3l-11.7,12.2,12.3,20.1-9.2-.3-8.9-13.5c-5.5,4-5.4,7.3-4.9,13.8-2.5-.3-6,.9-7.9-1v-43.8h7.9Z"/>
    <path class="st0" d="M307.5,395.2v25c1.1.3,1.3-.5,2-1,2.8-2.2,9-10.2,11.2-11.2s6.6,0,9.2-.3l-11.7,12.2,12.3,20.1-9.2-.3-8.9-13.5c-5.5,4-5.4,7.3-4.9,13.8-2.5-.3-6,.9-7.9-1v-43.8h7.9Z"/>
    <path class="st0" d="M151.8,428.5c6.5,6.4,14.9,4.1,21.7-.3,1,1,4.9,3.6,4.1,5.2-15.6,15-40.8,3.8-37.8-18.7,2.3-17.3,27.6-23.7,38.1-10l-4.3,5c-5.4-4.2-10.3-6.7-17.2-4.1s-11.5,16-4.6,22.9Z"/>
    <path class="st0" d="M452.1,397.4c6.8-.7,14.7,1.5,19.2,6.8l-4.3,5.5c-5.2-4.1-10-6.6-16.7-4.2-13.5,4.8-11.7,25,3.2,27,5.7.8,8.6-1.9,13.4-4.2l4.1,3.9v1.3c-7.2,7.5-19,8.9-27.9,3.6-17.3-10.3-11.4-37.4,9-39.6Z"/>
    <path class="st0" d="M549.7,426.1h-22.7l-.7,1.3c2.8,7.8,12.3,7.6,17.8,2.7,6.3,4.1,2.7,7.1-2.8,8.9-9.6,3.1-21.6-1-23.1-12-3.5-26,35.2-27,31.5-.9ZM542.4,420.9c-.4-10.1-15.4-9.7-16.4,0h16.4Z"/>
    <path class="st0" d="M256.2,426.1h-22.7l-.7,1.3c2.8,7.8,12.3,7.6,17.8,2.7l4.3,4.2c-8.5,9.9-28.3,6.8-30.2-7.3-3.5-25.9,35.2-27.1,31.5-.9ZM249,420.9c-.5-10.2-15.1-9.6-16.4,0h16.4Z"/>
    <path class="st0" d="M681,423.7c0,9.4-7.6,17-17,17s-17-7.6-17-17,7.6-17,17-17,17,7.6,17,17ZM657.8,431.2c1.8,1.7,4.9,2.4,7.3,2.2,10.8-.8,11.3-20.7-2.6-19.1-7.9.9-9.9,11.8-4.7,16.9Z"/>
    <path class="st0" d="M406.9,440h-7.9v-19.4c0-.7-1.6-3.5-2.4-4.2-2-1.6-5.8-1.8-8.2-1.1s-5.2,4.7-5.2,6v18.8h-7.9v-32.2h7.9s.3,5.3.3,5.3c3.8-6.9,15.8-8,20.7-1.6.8,1,2.6,4.9,2.6,5.9v22.7Z"/>
    <path class="st0" d="M695.7,407.7v18.8c0,3.3,4.2,6.4,7.6,6.3,3.1-.1,7.6-4,7.6-7v-18.1h7.9v32.2h-7.9s0-5.3,0-5.3c-4.7,7-17.8,7.6-21.5-.5-.3-.5-1.5-4.2-1.5-4.4v-22h7.9Z"/>
    <path class="st0" d="M569.3,407.2c5.5-.6,11.7,1.1,15.2,5.5l-4.3,4.8c-6.6-5.6-17-4.3-17.4,5.6-.5,10.5,11.1,13.5,17.5,6.3l4.9,4.3c-4.3,5.5-10.6,7.1-17.4,6.2-17.1-2.3-18.1-30.6,1.4-32.7Z"/>
    <path class="st0" d="M275.8,407.2c5.5-.6,11.7,1.1,15.2,5.5l-4.3,4.8c-6.2-5.4-16.6-4.4-17.4,5-.9,10.8,10.6,14.4,17.4,7l4.9,4.2c-2.6,3.1-6.1,5.6-10.2,6.2-25,3.3-26.6-30.4-5.7-32.7Z"/>
    <path class="st0" d="M739.2,409h9.2v5.3h-9.2v16.8c0,3.3,6,1.9,7.9,1l1.3,4.9c-.4,3.2-8.3,3.3-10.7,2.8-10-1.8-5.3-17.3-6.5-24.4-.5-1.7-3.1-1-4.5-1.1v-5.3s4.6,0,4.6,0v-9.2l7.6.6.3,8.6Z"/>
    <path class="st0" d="M364.1,407.7v32.2c-2.5-.3-6,.9-7.9-1v-31.3h7.9Z"/>
    <circle class="st0" cx="360.5" cy="398.2" r="4.4"/>
  </g>
  <g>
    <circle class="st0" cx="194.5" cy="233.4" r="14.4"/>
    <g>
      <rect class="st0" x="766.7" y="229.5" width="68" height="126.6"/>
      <rect class="st0" x="766.7" y="35.1" width="68" height="126.4"/>
    </g>
    <path class="st0" d="M286.3,356.1h-68v-224.5c0-5.4-8.1-19-12-23-25.1-25.6-81-10.9-81,27v220.5H53.3v-209.5c.5-67,43.8-115.9,111.5-119.5,74.8-4,117.6,37.9,121.6,111.5v217.5Z"/>
    <path class="st0" d="M485.3,34.5v70.3h-87.5c-15.7,0-28.4,12.7-28.4,28.4h0c0,15.7,12.7,28.4,28.4,28.4h47.4s0,68.1,0,68.1h-46.2c-16.3,0-29.5,13.2-29.5,29.5h0c0,16.3,13.2,29.5,29.5,29.5h86.3v67.4h-93.3c-50,0-90.6-40.5-90.6-90.6V122.2c0-48.5,39.3-87.7,87.7-87.7h96.1Z"/>
    <g>
      <polyline class="st0" points="674.4 355.9 625.8 261.8 577.3 355.9"/>
      <polyline class="st0" points="577.3 35.1 625.8 113.4 674.4 35.1"/>
      <polygon class="st0" points="750.9 35.1 674.4 35.1 625.8 113.4 577.3 35.1 500.8 35.1 587.6 187.6 500.8 355.9 577.3 355.9 625.8 261.8 674.4 355.9 750.9 355.9 664.1 187.6 750.9 35.1"/>
    </g>
  </g>
</svg>