<svg xmlns="http://www.w3.org/2000/svg" xmlns:xlink="http://www.w3.org/1999/xlink" width="731.884" height="145.301" viewBox="0 0 731.884 145.301">
  <defs>
    <clipPath id="clip-path">
      <rect id="Rectangle_2" data-name="Rectangle 2" width="544.655" height="86.168" transform="translate(173.904 24.606)" fill="#fff"/>
    </clipPath>
  </defs>
  <g id="Powered_by_-_4" data-name="Powered by - 4" transform="translate(-1037.772 -798.5)">
    <text id="Powered_by" data-name="Powered by" transform="translate(1225 829)" fill="#fff" font-size="30" font-family="Montserrat-MediumItalic, Montserrat" font-weight="500" font-style="italic"><tspan x="0" y="0">Powered by</tspan></text>
    <g id="Group_12" data-name="Group 12" transform="translate(1019.096 768.394)">
      <g id="Group_1" data-name="Group 1" transform="translate(32 64)" clip-path="url(#clip-path)">
        <path id="Path_2" data-name="Path 2" d="M267.821,59.757a31.291,31.291,0,0,0-12.906,2.784,16.279,16.279,0,0,0-8.163,7.987v37.525H230.89V46.024h14.56V59.283a28.277,28.277,0,0,1,3.906-5.742,30.041,30.041,0,0,1,4.853-4.438,22.463,22.463,0,0,1,5.267-2.9,14.537,14.537,0,0,1,5.148-1.006h1.952a6.456,6.456,0,0,1,1.241.116Z" transform="translate(7.663 1.498)" fill="#fff"/>
        <path id="Path_3" data-name="Path 3" d="M297.052,109.207a17.607,17.607,0,0,1-14.56-6.157q-4.969-6.154-4.972-18.228V46h15.862V81.394q0,14.325,10.3,14.325a16.289,16.289,0,0,0,8.938-2.781,20,20,0,0,0,7.043-8.463V46h15.865V89.795a5.572,5.572,0,0,0,.9,3.551,3.88,3.88,0,0,0,2.9,1.194v13.5a33.8,33.8,0,0,1-3.966.6c-1.065.078-2.032.119-2.9.119a11.421,11.421,0,0,1-6.924-1.955,7.685,7.685,0,0,1-3.137-5.372l-.355-4.972a26.449,26.449,0,0,1-10.654,9.589,32.048,32.048,0,0,1-14.324,3.2" transform="translate(9.205 1.528)" fill="#fff"/>
        <path id="Path_4" data-name="Path 4" d="M380.654,109.251a34.439,34.439,0,0,1-13.5-2.546A30.44,30.44,0,0,1,350.291,89.6a32.649,32.649,0,0,1-2.307-12.194,34.539,34.539,0,0,1,2.25-12.489,30.474,30.474,0,0,1,6.509-10.3A31.069,31.069,0,0,1,367.1,47.574a34.49,34.49,0,0,1,13.674-2.605,33.633,33.633,0,0,1,13.554,2.605,31.214,31.214,0,0,1,10.18,6.983A29.747,29.747,0,0,1,410.9,64.737a33.938,33.938,0,0,1,2.19,12.074q0,1.54-.06,2.96a12.164,12.164,0,0,1-.3,2.367H364.789a18.385,18.385,0,0,0,1.791,6.509,15.94,15.94,0,0,0,8.759,7.932,16.729,16.729,0,0,0,5.918,1.065,18.3,18.3,0,0,0,8.953-2.307,12.236,12.236,0,0,0,5.739-6.1l13.614,3.79a27.669,27.669,0,0,1-10.949,11.66,33.94,33.94,0,0,1-17.933,4.557m16.1-37.405a16.5,16.5,0,0,0-5.148-11.185,16,16,0,0,0-25.45,4.912,17.083,17.083,0,0,0-1.6,6.267Z" transform="translate(11.546 1.484)" fill="#fff"/>
        <path id="Path_5" data-name="Path 5" d="M460.616,109.345a34.75,34.75,0,0,1-15.981-3.668,41.249,41.249,0,0,1-12.43-9.589,42.828,42.828,0,0,1-8.058-13.614,45.112,45.112,0,0,1-2.841-15.742,43.685,43.685,0,0,1,3.026-16.1,45.026,45.026,0,0,1,8.288-13.614,39.651,39.651,0,0,1,12.489-9.41,35.409,35.409,0,0,1,15.626-3.492,34.666,34.666,0,0,1,16.041,3.727,40.288,40.288,0,0,1,12.43,9.765,45.137,45.137,0,0,1,7.989,13.671A44.511,44.511,0,0,1,488.731,96.5a40.1,40.1,0,0,1-12.489,9.35,35.408,35.408,0,0,1-15.626,3.492M427.353,66.729a40.435,40.435,0,0,0,2.426,13.91,37.515,37.515,0,0,0,6.864,11.836,33.784,33.784,0,0,0,10.606,8.231,29.724,29.724,0,0,0,13.495,3.077,29,29,0,0,0,13.671-3.2,33.374,33.374,0,0,0,10.418-8.463,40.13,40.13,0,0,0,6.566-39.3,38.511,38.511,0,0,0-6.924-11.839A34.265,34.265,0,0,0,474,32.759a28.762,28.762,0,0,0-13.259-3.077,29.347,29.347,0,0,0-13.728,3.2,33.821,33.821,0,0,0-10.534,8.464,38.885,38.885,0,0,0-6.747,11.9,39.8,39.8,0,0,0-2.37,13.495" transform="translate(13.971 0.799)" fill="#fff"/>
        <path id="Path_6" data-name="Path 6" d="M602.489,108.082h-5.918V73.763q0-11.716-3.611-17.282a12.277,12.277,0,0,0-11.069-5.563,18.688,18.688,0,0,0-7.222,1.421A21.871,21.871,0,0,0,568.4,56.3a25.558,25.558,0,0,0-4.912,6.037,31.762,31.762,0,0,0-3.256,7.759v37.981h-5.927V73.763q0-11.833-3.551-17.342a12.173,12.173,0,0,0-11.009-5.506,18.972,18.972,0,0,0-7.163,1.361,21.109,21.109,0,0,0-6.216,3.906,28.066,28.066,0,0,0-5.031,6.037,29.155,29.155,0,0,0-3.375,7.759v38.1H512.05V46.528h5.563V61.2a29.975,29.975,0,0,1,9.944-11.6,23.852,23.852,0,0,1,13.614-4.142,17.608,17.608,0,0,1,12.665,4.617,19.469,19.469,0,0,1,5.813,12.077q8.759-16.691,24.149-16.691a15.47,15.47,0,0,1,14.384,7.162A38.974,38.974,0,0,1,602.5,72.691Z" transform="translate(16.988 1.472)" fill="#fff"/>
        <path id="Path_7" data-name="Path 7" d="M667.771,108.052h-5.918V73.732q0-11.952-3.375-17.4a11.672,11.672,0,0,0-10.711-5.446,22.223,22.223,0,0,0-7.759,1.421,26.233,26.233,0,0,0-7.163,4.026,29.384,29.384,0,0,0-5.8,6.1,25.106,25.106,0,0,0-3.67,7.517v38.1h-5.918V46.5h5.563V61.171a28.931,28.931,0,0,1,4.677-6.452,29.473,29.473,0,0,1,6.267-4.972,31.631,31.631,0,0,1,7.409-3.2,28.975,28.975,0,0,1,8.058-1.125q10.06,0,14.205,7.043a40.228,40.228,0,0,1,4.142,20.183Z" transform="translate(20.48 1.502)" fill="#fff"/>
        <rect id="Rectangle_1" data-name="Rectangle 1" width="5.918" height="61.554" transform="translate(706.718 47.999)" fill="#fff"/>
        <path id="Path_12" data-name="Path 12" d="M185.335,32.324a8.508,8.508,0,1,1-8.508-8.508,8.508,8.508,0,0,1,8.508,8.508" transform="translate(5.585 0.79)" fill="#fff"/>
        <path id="Path_13" data-name="Path 13" d="M696.031,33.257a8.508,8.508,0,1,1-8.508-8.508,8.508,8.508,0,0,1,8.508,8.508" transform="translate(22.528 0.815)" fill="#fff"/>
        <path id="Path_1" data-name="Path 1" d="M233.409,39.013H206.551v69.722H190.334V39.013h.158V24.688h42.932Z" transform="translate(6.322 0.819)" fill="#fff"/>
      </g>
    </g>
    <g id="Group_1-2" data-name="Group 1" transform="translate(1037.772 798.5)">
      <path id="Path_8" data-name="Path 8" d="M76.851,87.71a25.838,25.838,0,0,1-12.931-3.466l-20.29,20.3a54.039,54.039,0,0,0,66.9-.346L90.291,83.948a25.834,25.834,0,0,1-13.44,3.761" transform="translate(5.69 10.948)" fill="#fff"/>
      <path id="Path_9" data-name="Path 9" d="M76.846,16.3A53.941,53.941,0,0,0,43.678,27.694l20.3,20.3a25.834,25.834,0,0,1,26.242.3L110.461,28.05A53.97,53.97,0,0,0,76.83,16.315" transform="translate(5.695 2.127)" fill="#fff"/>
      <path id="Path_10" data-name="Path 10" d="M120.228,94.038a53.723,53.723,0,0,0,0-42.725L153.268,0l-39.95,39.571-.082-.114-20.293,20.3a25.86,25.86,0,0,1,.036,25.8h-.036l4.3,4.245,16.039,16.039.065-.088L153.268,145.3Z" transform="translate(12.124)" fill="#fff"/>
      <path id="Path_11" data-name="Path 11" d="M33.027,94.038a53.722,53.722,0,0,1,0-42.725L0,0,39.95,39.571l.082-.114,20.293,20.3a25.86,25.86,0,0,0-.036,25.8h.036l-4.3,4.245L39.989,105.832l-.065-.088L0,145.3Z" fill="#fff"/>
    </g>
  </g>
</svg>
