<svg xmlns="http://www.w3.org/2000/svg" width="137.993" height="121.233" viewBox="0 0 137.993 121.233">
  <g id="NEXI-Icon" transform="translate(-6144.282 727.124)">
    <path id="Path_7849" data-name="Path 7849" d="M71.349,87.094A21.555,21.555,0,0,1,60.563,84.2L43.631,101.134a45.086,45.086,0,0,0,55.823-.289l-16.9-16.9a21.556,21.556,0,0,1-11.207,3.145" transform="translate(6141.802 -731.895)" fill="#262626"/>
    <path id="Path_7850" data-name="Path 7850" d="M71.352,16.305a45.007,45.007,0,0,0-27.674,9.5L60.614,42.742a21.555,21.555,0,0,1,21.9.255l16.9-16.9a45.032,45.032,0,0,0-28.06-9.79" transform="translate(6141.8 -728.05)" fill="#262626"/>
    <path id="Path_7851" data-name="Path 7851" d="M115.72,78.45a44.824,44.824,0,0,0-.011-35.648L143.276,0,109.944,33.015c-.024-.031-.044-.064-.068-.094L92.944,49.852a21.576,21.576,0,0,1,.03,21.524v0l-.031,0,3.584,3.55,13.381,13.381c.019-.024.035-.051.054-.075l33.313,33Z" transform="translate(6139 -727.124)" fill="#262626"/>
    <path id="Path_7852" data-name="Path 7852" d="M27.556,78.45A44.823,44.823,0,0,1,27.567,42.8L0,0,33.332,33.015c.024-.031.044-.064.068-.094L50.332,49.852a21.576,21.576,0,0,0-.03,21.524v0l.031,0-3.584,3.55L33.367,88.312c-.019-.024-.035-.051-.054-.075L0,121.233Z" transform="translate(6144.282 -727.124)" fill="#262626"/>
  </g>
</svg>
