<svg xmlns="http://www.w3.org/2000/svg" width="342.236" height="34" viewBox="0 0 342.236 34">
  <g id="Powered_by_Trueomni-Logo" transform="translate(-6097.471 603.783)">
    <g id="Logo-True_Omni-Light" transform="translate(6223.282 -608.781)">
      <path id="Path_2" data-name="Path 2" d="M242.013,49.582a9.423,9.423,0,0,0-3.886.838,4.9,4.9,0,0,0-2.46,2.406v11.3h-4.778V45.446h4.385V49.44a8.514,8.514,0,0,1,1.177-1.729,9.046,9.046,0,0,1,1.462-1.337A6.765,6.765,0,0,1,239.5,45.5a4.379,4.379,0,0,1,1.551-.3h.588a1.944,1.944,0,0,1,.374.035Z" transform="translate(-159.04 -31.132)" fill="#262626"/>
      <path id="Path_3" data-name="Path 3" d="M283.4,65.038a5.3,5.3,0,0,1-4.385-1.854,8.594,8.594,0,0,1-1.5-5.491V46H282.3v10.66q0,4.314,3.1,4.314a4.906,4.906,0,0,0,2.692-.838,6.023,6.023,0,0,0,2.121-2.549V46h4.778V59.191a1.678,1.678,0,0,0,.267,1.07,1.168,1.168,0,0,0,.874.357v4.064a10.183,10.183,0,0,1-1.194.178c-.321.023-.612.036-.874.036a3.44,3.44,0,0,1-2.086-.588,2.315,2.315,0,0,1-.945-1.622l-.107-1.5a7.966,7.966,0,0,1-3.209,2.888,9.653,9.653,0,0,1-4.314.963" transform="translate(-191.16 -31.685)" fill="#262626"/>
      <path id="Path_4" data-name="Path 4" d="M357.823,64.328a10.373,10.373,0,0,1-4.064-.766,9.167,9.167,0,0,1-5.081-5.152,9.833,9.833,0,0,1-.7-3.672,10.4,10.4,0,0,1,.677-3.762,9.182,9.182,0,0,1,1.961-3.1,9.36,9.36,0,0,1,3.12-2.121,10.387,10.387,0,0,1,4.118-.785,10.13,10.13,0,0,1,4.082.785,9.4,9.4,0,0,1,3.066,2.1,8.958,8.958,0,0,1,1.925,3.066,10.221,10.221,0,0,1,.66,3.637q0,.464-.018.891a3.664,3.664,0,0,1-.089.713h-14.44a5.54,5.54,0,0,0,.535,1.961,4.8,4.8,0,0,0,2.638,2.389,5.039,5.039,0,0,0,1.783.321,5.512,5.512,0,0,0,2.692-.7,3.682,3.682,0,0,0,1.729-1.836l4.1,1.141a8.334,8.334,0,0,1-3.3,3.512,10.223,10.223,0,0,1-5.4,1.373m4.849-11.266a4.971,4.971,0,0,0-1.551-3.369,4.867,4.867,0,0,0-6.614.018,4.893,4.893,0,0,0-1.052,1.462,5.146,5.146,0,0,0-.481,1.89Z" transform="translate(-239.696 -30.975)"/>
      <path id="Path_5" data-name="Path 5" d="M433.147,49.785a10.466,10.466,0,0,1-4.813-1.105,12.425,12.425,0,0,1-3.744-2.888,12.9,12.9,0,0,1-2.424-4.1,13.588,13.588,0,0,1-.855-4.742,13.16,13.16,0,0,1,.909-4.849,13.561,13.561,0,0,1,2.5-4.1,11.943,11.943,0,0,1,3.762-2.834,10.665,10.665,0,0,1,4.706-1.052,10.441,10.441,0,0,1,4.831,1.123,12.135,12.135,0,0,1,3.744,2.941,13.6,13.6,0,0,1,2.406,4.118,13.407,13.407,0,0,1-2.549,13.62,12.077,12.077,0,0,1-3.761,2.817,10.666,10.666,0,0,1-4.706,1.052M423.128,36.95a12.181,12.181,0,0,0,.731,4.189,11.3,11.3,0,0,0,2.068,3.565,10.174,10.174,0,0,0,3.191,2.478,8.953,8.953,0,0,0,4.064.927,8.736,8.736,0,0,0,4.118-.963,10.053,10.053,0,0,0,3.138-2.549,12.086,12.086,0,0,0,1.978-11.837,11.6,11.6,0,0,0-2.085-3.566,10.323,10.323,0,0,0-3.156-2.478,8.664,8.664,0,0,0-3.993-.927,8.839,8.839,0,0,0-4.136.962,10.186,10.186,0,0,0-3.173,2.549,11.71,11.71,0,0,0-2.032,3.583,11.989,11.989,0,0,0-.713,4.064" transform="translate(-290.204 -16.611)" fill="#262626"/>
      <path id="Path_6" data-name="Path 6" d="M539.289,64.287h-1.782V53.947a9.766,9.766,0,0,0-1.088-5.205,3.7,3.7,0,0,0-3.334-1.676,5.631,5.631,0,0,0-2.175.428,6.588,6.588,0,0,0-1.889,1.194,7.7,7.7,0,0,0-1.48,1.818,9.563,9.563,0,0,0-.98,2.335V64.287h-1.783V53.947a9.886,9.886,0,0,0-1.069-5.223,3.667,3.667,0,0,0-3.316-1.658,5.714,5.714,0,0,0-2.157.41,6.361,6.361,0,0,0-1.872,1.177,8.462,8.462,0,0,0-1.515,1.818,8.79,8.79,0,0,0-1.016,2.335V64.287H512.05V45.747h1.675v4.421a9.028,9.028,0,0,1,3-3.494,7.183,7.183,0,0,1,4.1-1.248,5.308,5.308,0,0,1,3.815,1.39,5.865,5.865,0,0,1,1.747,3.637q2.638-5.027,7.273-5.027a4.66,4.66,0,0,1,4.332,2.157,11.741,11.741,0,0,1,1.3,6.044Z" transform="translate(-352.707 -31.29)" fill="#262626"/>
      <path id="Path_7" data-name="Path 7" d="M632.611,64.287h-1.782V53.947a10.3,10.3,0,0,0-1.016-5.241,3.516,3.516,0,0,0-3.227-1.64,6.694,6.694,0,0,0-2.335.428,7.9,7.9,0,0,0-2.157,1.212,8.859,8.859,0,0,0-1.747,1.836,7.573,7.573,0,0,0-1.105,2.264V64.287h-1.782V45.747h1.676v4.421a8.712,8.712,0,0,1,1.408-1.943,8.874,8.874,0,0,1,1.89-1.5,9.52,9.52,0,0,1,2.228-.963,8.728,8.728,0,0,1,2.425-.339,4.556,4.556,0,0,1,4.279,2.121,12.118,12.118,0,0,1,1.248,6.079Z" transform="translate(-425.314 -31.29)" fill="#262626"/>
      <rect id="Rectangle_1" data-name="Rectangle 1" width="1.782" height="18.54" transform="translate(212.858 14.457)" fill="#262626"/>
      <path id="Path_12" data-name="Path 12" d="M173.444,26.379a2.563,2.563,0,1,1-2.563-2.563,2.563,2.563,0,0,1,2.563,2.563" transform="translate(-115.941 -16.405)" fill="#079ee2"/>
      <path id="Path_13" data-name="Path 13" d="M684.14,27.316a2.563,2.563,0,1,1-2.563-2.563,2.563,2.563,0,0,1,2.563,2.563" transform="translate(-467.715 -17.05)" fill="#079ee2"/>
      <path id="Path_19" data-name="Path 19" d="M203.307,29h-8.093V50h-4.885V29h.047V24.688h12.931Z" transform="translate(-131.102 -17.006)" fill="#262626"/>
    </g>
    <text id="Powered_by" data-name="Powered by" transform="translate(6097.471 -576.783)" fill="#181818" font-size="28" font-family="Montserrat-Medium, Montserrat" font-weight="500"><tspan x="0" y="0">Powered by</tspan></text>
  </g>
</svg>
