<?xml version="1.0" encoding="UTF-8"?>
<svg id="Layer_1" xmlns="http://www.w3.org/2000/svg" version="1.1" viewBox="0 0 2500.8 782.9">
<defs><style>.st0 { fill: #0088ce; }</style></defs>
<path d="M1394.8,610.8l-4.6-.6s-16.2-3.9-20.5-5.1c-96.8-26.8-147-121.4-129.6-218.4,13.3-74.5,75-133.1,149.3-145.5,131.8-22,236.2,68.8,226.8,202.9-.2,3.2-.5,8.5-3.7,10.1-.7.3-4.7,1.4-5.2,1.4h-269.3c-2.1,0-1,6.1-.8,7.4,8.9,63,75.3,97.5,133.1,73,11.7-5,30.8-16.6,37.7-27.3,6.7-10.3,4.2-14.7,19.6-10.9,9.8,2.4,20.1,6,29.9,8.8s21.9,4.8,31.2,8.2c6.6,2.4,6,5.2,3.2,10.8-15.6,31.8-53.5,60.3-86,72.9-13.8,5.4-27.7,8.6-42.2,11.3h0c-2.2.2-4.4.3-6.6.3l-62.5.6h0ZM1420.4,306.2c-39.5,2.8-72.4,31.3-82.6,69.1-.9,3.5-4.2,15.6-1.7,18,2,1.9,14.4,1.4,17.8,1.3,46.9-.8,94.2-1.3,141.2-.7,4.6,0,20.4,2.4,23.3-.9,2.3-2.6,0-12.1-.9-15.6-10.3-44.2-51.6-74.5-97.1-71.2h0Z"/>
<path d="M906,609.9l-5.7-.4c-12.5-2-24.8-6.5-35.4-13.2-38.7-24.2-49.8-73.9-51.3-116.7-2.6-75.2,2-151.8,0-227.1.2-4,2.4-8.3,6.9-8.2,25.6,1.8,54.3-2.4,79.5,0,5.3.5,7.1,3,7.6,8.2v208.7c5.2,108.1,116.7,80.8,150.1,8.2,2.2-58.5.7-117.6.3-176.2,0-12-.9-26.4,0-38.1.5-5.9,1.6-10.2,8.2-10.8,25.1-2.4,54,1.9,79.5,0,3.6.1,5.7,2.5,6.8,5.7,1,86.9-1.2,173.9,1.1,260.7,1.1,5.3,4.2,10.1,9.1,12.6s10.9,1,12.1,8.2c-.9,21.7,1.8,45.3.2,66.8-.4,6.1-1.2,7.4-7.1,8.6-28.3,5.7-74.3,5.1-88.9-24.9-6.1-12.6-4.3-27-6.8-40.5-10.7,12.8-20.7,25.4-33.9,35.7-22.2,17.3-49.2,27.6-76.8,32.6l-7.6.4-47.8-.3h0Z"/>
<path d="M292.9,118.5c.9-.9,3.4-1.5,4.7-1.5h239.2c3.3-.2,4.8,2.1,5.5,5v73.5c-.4,3.9-2.9,6.1-6.8,6.2h-143.9c-5.1.6-5.3,4.5-5.6,8.8-1.4,21.2.6,43.2.7,64.3.5,107-.5,214,0,320.9-.9,10.7-7.9,10.3-16.8,10.1-20.5-.4-41.2-.9-61.8-.7-6.1,0-15.9,3-18-5.6.3-159-1-318.1,1.2-477,.1-1.1.8-3.3,1.5-4.1h0Z"/>
<path d="M619.8,315.5c.2.6.9,1.2,1.6.3,2.7-3.3,5.8-9.7,8.6-13.7,24.3-33.8,66.8-66.6,111-63.1,4.5.4,7.8,1.4,8.8,6.3-1.6,23.5,2.3,50.3,0,73.5-.2,1.6-.6,3.7-1.7,4.9-2.7,2.8-18.1,2.8-22.9,3.4-12.7,1.7-25.3,4.3-37.4,8.6-25.3,9.1-58.9,31.8-61,61.2-3.3,47.9,2.5,99.4,0,147.7.4,16,1.8,33.9.7,49.9-.5,8-2.6,10.9-10.8,11.5-3.4.2-6.2-.7-9.2-.7-21.4-.2-43.1,1-64.4.7-5.7,0-9.4-2.1-9.6-8.2l.2-347.7c.8-4,2.8-5.4,6.7-5.8,23-2.2,49.6,1.7,73,0,2.3,0,6.2,2.6,6.2,4.9v66.3h0Z"/>
<path d="M2215.8,276c19.3-1.8,38.8,12.1,43.9,30.6,2.2,59.7.3,119.7,1,179.5-3.3,25.9,2.5,54.3-.1,80-1.5,15.4-14.5,30.1-29.2,34.5-28.1,8.4-53.3-12.7-54.2-41v-240.2c.1-22.5,16-41.3,38.6-43.4h0Z"/>
<circle class="st0" cx="208" cy="161.1" r="50.6"/>
<circle class="st0" cx="2219.2" cy="161.1" r="50.6"/>
<path d="M2191.3,238.9c-24.3-8.8-43.4-28.6-51-53.4s-7.4-6.2-11-2.7l-101.7,101.1c-.6.6-1.5.4-1.8-.3-4.6-10.4-8.2-21.4-12.3-32.1-13.3-34.5-27.1-68.8-40.4-103.3-1.3-3.3-1.9-7-3.3-10.5-4.5-10.8-13.2-18.8-23.8-23.5h-.7c0-.1,0,0,0,0-1.1-.2-2.3-.3-3.4-.3l-20.6-.4c-1.7,0-3.4.1-5.1.4s-.2,0-.2,0c-11.3,4.2-18.7,13.4-23.8,23.9,0,0,0,0,0,.1l-156.4,408.7c-8.8,22.9,1.6,47.9,25.3,55.5,21.3,6.8,35-3.2,50.3-16.1,59.1-50.1,115.6-105.2,175.4-154.2.5-.4,2.1-1.8,3.4-2.5s1.4,0,1.6.6l58.6,151c0,0,0,.1,0,.1,26.1,47.6,96.1,14.8,75.4-36.1l-67.1-175.2c-.2-.4,0-.9.3-1.3,42.7-38.4,86.4-75.6,129.3-113.7,1.7-1.5,3.4-3.1,5.1-4.6,3.7-3.3,2.5-9.4-2.2-11.1ZM1875.5,415.3h0c0-.3,0-.5,0-.8l54.9-141.2c.4-1,1.8-1,2.1,0l26,70c.2.4,0,.9-.3,1.2l-80.9,71.2c-.6.5-1.6.3-1.8-.5Z"/>
</svg>
